<?xml version="1.0" standalone="no"?>
<!DOCTYPE svg PUBLIC "-//W3C//DTD SVG 20010904//EN"
 "http://www.w3.org/TR/2001/REC-SVG-20010904/DTD/svg10.dtd">
<svg version="1.0" xmlns="http://www.w3.org/2000/svg"
 width="1024.000000pt" height="1024.000000pt" viewBox="0 0 1024.000000 1024.000000"
 preserveAspectRatio="xMidYMid meet">
<metadata>
Created by potrace 1.14, written by Peter Selinger 2001-2017
</metadata>
<g transform="translate(0.000000,1024.000000) scale(0.100000,-0.100000)"
fill="#000000" stroke="none">
<path d="M3550 9759 c-216 -35 -377 -203 -415 -434 -8 -49 -17 -115 -20 -145
-3 -30 -10 -77 -15 -105 -8 -46 -14 -86 -26 -185 -8 -64 -15 -90 -27 -91 -25
-1 -85 -7 -182 -18 -55 -6 -125 -13 -155 -16 -30 -3 -70 -7 -90 -9 -19 -3 -57
-7 -85 -10 -27 -3 -72 -8 -100 -11 -27 -3 -72 -7 -100 -10 -80 -7 -263 -27
-375 -40 -19 -2 -64 -7 -100 -10 -36 -4 -81 -8 -100 -10 -19 -2 -58 -7 -87
-10 -28 -3 -77 -8 -110 -10 -32 -3 -74 -7 -93 -10 -19 -2 -60 -7 -90 -10 -30
-3 -71 -8 -90 -10 -19 -3 -64 -7 -100 -11 -36 -3 -76 -7 -90 -9 -14 -1 -59 -6
-100 -9 -41 -4 -86 -9 -100 -11 -14 -2 -54 -6 -90 -10 -36 -3 -81 -8 -100 -10
-19 -2 -59 -7 -87 -10 -189 -19 -203 -21 -268 -40 -118 -35 -232 -132 -293
-251 -40 -79 -55 -160 -48 -269 3 -55 8 -111 10 -125 4 -23 7 -47 21 -207 4
-35 8 -73 10 -85 3 -13 8 -56 11 -97 3 -42 7 -83 9 -92 2 -9 6 -52 10 -95 3
-43 8 -90 10 -104 3 -14 7 -52 10 -85 3 -33 8 -73 10 -90 2 -16 7 -66 10 -110
4 -44 9 -88 11 -98 2 -10 6 -48 9 -85 3 -37 8 -84 10 -104 11 -88 14 -117 20
-181 4 -37 8 -76 10 -86 2 -9 6 -53 10 -97 3 -43 8 -90 10 -104 2 -14 6 -55
10 -91 3 -36 7 -76 10 -90 2 -13 6 -60 10 -103 4 -43 8 -86 10 -95 1 -9 6 -52
9 -96 4 -44 9 -87 11 -95 2 -8 6 -50 10 -93 4 -43 8 -88 10 -100 2 -12 6 -51
10 -87 3 -36 7 -81 9 -100 3 -19 7 -62 11 -95 7 -70 12 -122 19 -185 3 -25 8
-72 11 -105 3 -33 8 -73 10 -90 2 -16 7 -61 10 -100 4 -38 8 -80 10 -92 2 -12
6 -57 10 -100 4 -43 8 -85 10 -93 2 -8 7 -51 11 -95 3 -44 8 -87 9 -96 2 -9 6
-52 10 -95 3 -43 8 -86 10 -94 2 -8 7 -51 11 -95 3 -44 8 -88 9 -97 2 -9 6
-49 10 -90 3 -40 8 -84 10 -98 2 -14 7 -54 10 -90 3 -36 8 -81 10 -100 4 -34
10 -90 20 -187 11 -116 16 -160 20 -188 2 -16 7 -61 11 -100 3 -38 7 -81 9
-95 1 -14 6 -54 9 -90 4 -36 9 -81 11 -100 3 -19 9 -84 15 -145 6 -60 13 -123
15 -140 2 -16 7 -57 10 -90 3 -33 8 -78 10 -100 3 -22 7 -60 10 -85 3 -25 7
-67 10 -95 13 -139 19 -175 36 -231 48 -156 187 -286 351 -330 63 -16 322 -9
385 11 15 5 14 23 15 -279 0 -168 5 -256 14 -299 43 -181 198 -333 380 -370
48 -9 745 -12 3215 -11 l3154 1 60 21 c181 63 292 184 342 373 3 13 7 233 9
489 2 256 3 471 3 478 1 7 5 11 10 7 6 -3 34 -8 63 -10 29 -3 64 -8 78 -11 14
-3 65 -7 114 -8 144 -5 264 42 365 143 92 91 138 198 156 362 3 31 7 66 9 76
3 11 7 44 11 73 4 29 9 62 11 74 2 12 7 44 9 71 3 28 7 59 9 70 2 11 7 45 11
75 4 30 9 62 10 70 6 36 16 98 20 134 4 38 13 98 20 146 2 14 6 45 10 70 3 25
8 63 12 85 4 22 7 47 8 55 1 18 18 143 20 150 1 3 5 32 9 65 5 33 10 67 11 76
2 9 6 40 10 69 4 29 9 62 11 74 2 12 6 44 9 71 6 50 12 89 20 135 2 14 7 49
10 79 4 30 9 63 11 75 2 12 7 46 10 76 3 30 7 57 9 61 2 3 7 37 10 75 4 38 8
71 10 74 2 3 6 30 10 60 7 59 13 100 20 140 2 14 7 49 10 79 4 30 8 62 10 71
2 9 6 41 10 71 3 30 8 61 10 69 2 8 6 38 10 65 9 84 13 109 19 145 3 19 8 51
10 70 2 19 11 82 20 140 8 58 17 121 20 140 3 30 12 89 42 300 6 41 22 157 30
215 3 22 7 51 9 65 2 14 7 45 10 70 3 25 8 56 10 70 2 14 6 43 9 65 9 66 47
338 51 365 3 14 7 50 11 80 3 30 8 64 10 74 3 18 47 327 60 421 3 22 7 51 9
65 2 14 9 61 15 106 6 44 12 90 14 101 3 11 7 44 11 74 3 30 10 79 15 109 5
30 12 78 15 105 3 28 10 77 15 110 5 33 11 78 14 100 3 22 11 74 17 115 5 41
13 95 16 120 2 25 8 65 13 90 16 86 10 256 -11 317 -48 140 -155 253 -288 304
-46 17 -206 47 -346 64 -58 7 -178 24 -215 30 -26 4 -72 10 -155 21 -27 3 -57
8 -67 9 -9 2 -38 6 -65 10 -26 4 -59 9 -73 11 -14 2 -50 6 -80 9 -30 3 -62 8
-70 10 -8 3 -33 7 -55 9 -35 5 -222 31 -470 66 -44 7 -96 14 -115 16 -19 3
-111 16 -205 29 -93 14 -190 27 -215 30 -25 3 -56 7 -70 10 -14 3 -45 7 -70
10 -25 3 -56 7 -70 10 -14 3 -41 7 -60 9 -44 5 -336 46 -370 51 -14 2 -47 7
-75 11 -27 3 -59 8 -70 10 -11 2 -42 6 -70 9 -27 3 -75 10 -105 15 -30 5 -75
11 -100 14 -25 4 -54 8 -65 10 -11 2 -45 7 -76 10 -31 4 -65 8 -75 10 -11 2
-41 7 -69 10 -27 4 -61 9 -75 11 -14 2 -47 7 -75 10 -27 4 -59 9 -70 10 -11 2
-54 8 -95 14 -41 6 -95 13 -120 16 -25 3 -52 8 -60 10 -8 2 -42 6 -75 10 -33
3 -67 8 -75 10 -8 2 -37 6 -65 10 -27 3 -113 15 -190 26 -77 10 -158 22 -180
24 -22 3 -51 8 -65 10 -14 2 -45 7 -70 10 -25 3 -56 8 -70 10 -14 2 -43 7 -65
9 -22 3 -105 15 -185 26 -205 29 -213 30 -256 35 -22 3 -68 9 -104 15 -36 5
-81 12 -100 14 -19 3 -84 12 -145 21 -116 16 -123 17 -251 35 -44 6 -89 12
-100 14 -10 2 -44 7 -74 11 -30 4 -62 9 -70 10 -98 17 -212 23 -270 14z m300
-625 c19 -2 64 -9 100 -14 64 -10 112 -16 185 -25 21 -3 50 -7 64 -10 14 -2
46 -7 71 -10 25 -3 56 -8 70 -10 14 -2 61 -9 105 -15 44 -6 91 -12 105 -14 14
-3 48 -7 75 -11 28 -3 57 -8 65 -10 8 -2 42 -7 75 -11 79 -9 97 -11 147 -19
24 -4 54 -8 68 -10 79 -11 181 -25 220 -30 25 -4 56 -8 70 -10 14 -2 45 -7 70
-10 25 -3 52 -8 60 -10 8 -2 40 -6 70 -9 30 -3 64 -8 75 -10 11 -2 43 -7 70
-10 28 -4 143 -20 257 -36 113 -17 228 -32 255 -35 26 -3 59 -8 73 -10 14 -3
43 -8 65 -10 22 -3 67 -10 100 -15 33 -5 83 -12 110 -15 28 -4 113 -16 190
-27 77 -11 154 -21 170 -23 27 -3 261 -37 355 -51 36 -6 64 -9 140 -19 25 -3
56 -8 70 -10 52 -8 97 -14 145 -20 28 -4 91 -12 140 -20 50 -7 114 -17 144
-20 30 -4 61 -8 70 -10 9 -1 39 -6 66 -9 28 -4 64 -9 80 -11 69 -10 393 -56
430 -61 22 -3 51 -7 65 -9 14 -2 61 -9 105 -15 44 -6 91 -13 105 -15 14 -3 50
-7 80 -11 30 -3 62 -8 70 -9 9 -2 43 -7 75 -11 33 -4 62 -8 65 -9 3 -1 30 -5
60 -9 30 -4 66 -9 80 -11 14 -2 61 -9 106 -15 44 -6 89 -12 100 -14 16 -3 160
-23 216 -30 29 -4 31 -12 19 -93 -6 -43 -13 -96 -16 -118 -3 -22 -7 -58 -11
-80 -3 -22 -7 -51 -9 -65 -2 -14 -6 -45 -10 -70 -11 -75 -14 -93 -20 -140 -3
-25 -8 -56 -10 -70 -2 -14 -7 -45 -10 -70 -3 -25 -8 -57 -10 -71 -3 -14 -7
-43 -10 -64 -5 -41 -14 -105 -20 -145 -4 -25 -11 -76 -21 -155 -3 -22 -9 -67
-14 -100 -5 -33 -12 -80 -15 -105 -3 -25 -8 -56 -10 -70 -2 -14 -13 -95 -25
-180 -12 -85 -23 -166 -25 -180 -2 -14 -7 -47 -10 -75 -4 -27 -8 -57 -10 -65
-2 -8 -7 -40 -10 -70 -3 -30 -10 -82 -15 -115 -14 -93 -42 -288 -55 -380 -7
-57 -18 -130 -20 -145 -2 -9 -6 -43 -10 -75 -4 -33 -9 -67 -11 -77 -1 -9 -5
-38 -9 -65 -4 -26 -8 -59 -10 -73 -2 -14 -7 -47 -11 -75 -3 -27 -8 -58 -10
-69 -2 -10 -6 -44 -10 -75 -3 -31 -8 -58 -9 -61 -2 -3 -6 -37 -10 -75 -4 -39
-9 -72 -10 -75 -2 -3 -6 -30 -10 -60 -3 -30 -8 -62 -10 -70 -2 -8 -7 -40 -10
-70 -3 -30 -8 -66 -10 -80 -2 -14 -7 -45 -10 -70 -5 -42 -41 -293 -50 -350 -2
-14 -7 -47 -10 -75 -4 -27 -8 -61 -10 -75 -2 -14 -6 -43 -9 -65 -3 -22 -13
-89 -21 -150 -9 -60 -18 -123 -20 -140 -3 -16 -14 -93 -25 -170 -10 -77 -22
-158 -24 -180 -3 -22 -12 -85 -20 -140 -8 -55 -18 -125 -21 -155 -4 -30 -8
-57 -10 -60 -1 -3 -6 -36 -10 -75 -4 -38 -8 -72 -10 -75 -1 -3 -6 -30 -9 -61
-4 -31 -9 -67 -11 -80 -3 -13 -7 -48 -10 -76 -3 -29 -10 -75 -15 -103 -5 -27
-12 -78 -16 -112 -3 -35 -9 -67 -11 -72 -6 -10 -180 8 -192 20 -2 2 -4 1070
-4 2374 0 2570 3 2431 -53 2543 -14 27 -30 55 -34 61 -89 112 -195 182 -305
203 -22 4 -43 8 -47 9 -5 1 -1056 2 -2336 3 l-2329 1 8 58 c5 31 11 77 14 102
8 56 14 98 20 130 2 14 7 48 10 75 3 28 10 77 15 110 5 33 12 80 15 105 9 69
13 91 21 145 4 28 8 57 9 65 2 20 17 131 20 150 6 32 19 126 30 205 1 11 5 45
9 75 4 30 11 80 16 110 5 30 12 78 15 105 11 88 11 88 63 80 26 -3 63 -8 82
-11z m-885 -1017 c-3 -39 -8 -73 -10 -76 -1 -4 -6 -31 -9 -61 -4 -30 -8 -66
-10 -80 -2 -14 -7 -47 -11 -73 -4 -27 -8 -57 -10 -66 -2 -10 -6 -42 -10 -72
-4 -30 -8 -55 -9 -56 -1 -2 -235 -3 -519 -3 -435 -1 -524 -3 -569 -16 -170
-50 -290 -161 -354 -330 -18 -47 -18 -146 -21 -2534 -1 -1367 -2 -2540 -2
-2607 l-1 -122 -32 -5 c-80 -13 -147 -16 -152 -8 -3 5 -8 40 -11 78 -4 38 -8
80 -10 94 -2 14 -6 59 -10 100 -3 41 -8 82 -10 90 -2 8 -7 49 -10 90 -4 41 -8
86 -10 100 -2 14 -7 57 -10 95 -3 39 -8 84 -10 100 -2 17 -6 59 -10 95 -3 36
-8 76 -10 90 -2 14 -7 61 -11 105 -3 44 -8 87 -9 95 -2 8 -6 44 -9 80 -4 36
-9 81 -11 100 -2 19 -7 64 -10 100 -4 36 -8 81 -11 100 -2 19 -6 60 -10 90 -3
30 -7 69 -9 85 -2 17 -6 62 -10 100 -3 39 -8 84 -10 100 -2 17 -6 57 -10 90
-3 33 -8 78 -10 100 -3 22 -7 67 -10 100 -3 33 -8 76 -10 95 -2 19 -9 82 -15
140 -6 58 -13 121 -15 140 -2 19 -7 64 -10 100 -3 36 -7 76 -10 90 -2 14 -6
52 -9 85 -4 33 -9 82 -12 108 -3 27 -7 67 -9 90 -2 23 -6 62 -9 87 -3 25 -8
72 -11 105 -6 57 -8 82 -20 185 -2 25 -9 92 -15 150 -6 58 -13 124 -15 148 -8
71 -14 122 -25 232 -6 58 -13 121 -15 140 -2 19 -7 62 -10 95 -3 33 -8 76 -10
95 -2 19 -6 60 -10 90 -3 30 -7 75 -10 100 -6 55 -12 116 -20 195 -3 33 -8 76
-10 95 -2 19 -7 62 -10 95 -9 94 -15 148 -20 175 -2 14 -7 61 -10 104 -4 43
-8 86 -10 95 -1 9 -6 52 -10 95 -4 43 -8 86 -10 95 -1 9 -6 52 -10 95 -4 43
-8 86 -10 95 -1 9 -6 52 -9 96 -4 44 -9 91 -11 105 -11 73 -15 140 -8 141 4 1
19 2 33 3 14 2 50 6 80 10 30 3 80 9 110 11 30 3 69 8 85 10 17 2 66 7 110 11
44 3 88 8 97 9 9 2 48 7 85 10 37 4 78 8 89 10 12 2 61 6 110 10 49 4 92 9 95
11 3 1 39 6 80 9 41 3 85 8 99 10 14 2 59 7 100 10 41 3 86 8 100 10 14 2 54
6 90 10 36 4 76 8 90 10 23 3 103 11 209 21 24 2 60 6 80 8 20 3 59 7 86 10
130 14 163 17 280 31 28 3 81 8 120 11 38 3 70 6 72 7 1 2 12 3 24 4 20 2 21
-1 14 -70z m5042 -4074 l-2 -2988 -2975 -1 c-1636 0 -2980 2 -2986 4 -9 2 -12
772 -12 2988 l0 2984 2988 0 2988 0 -1 -2987z"/>
<path d="M3141 6113 c-134 -34 -222 -154 -217 -295 3 -87 25 -136 86 -198 99
-102 -103 -92 2014 -92 l1851 0 57 22 c76 28 147 105 173 185 46 146 -24 303
-163 368 l-47 22 -1850 1 c-1559 1 -1859 -1 -1904 -13z"/>
<path d="M3130 4922 c-82 -27 -137 -75 -178 -154 -21 -43 -26 -67 -27 -128 0
-96 22 -148 91 -216 96 -95 -97 -87 2003 -87 1312 0 1857 4 1885 11 103 29
199 138 212 239 9 71 -2 132 -32 190 -32 60 -69 96 -136 131 l-53 27 -1860 1
c-1618 1 -1866 -1 -1905 -14z"/>
<path d="M3135 3733 c-84 -25 -150 -82 -188 -163 -32 -69 -30 -188 5 -256 15
-28 48 -70 73 -92 92 -81 -78 -74 2004 -74 l1858 0 56 26 c65 31 119 83 150
146 30 62 31 185 0 251 -41 91 -114 148 -213 168 -39 7 -600 10 -1875 10
-1583 -1 -1826 -3 -1870 -16z"/>
<path d="M3131 2540 c-193 -65 -264 -284 -147 -460 29 -44 104 -96 160 -111
61 -17 1895 -16 1956 1 127 35 213 149 213 285 1 120 -68 228 -176 276 l-52
24 -952 1 c-866 1 -957 -1 -1002 -16z"/>
</g>
</svg>
